{"title":"Megadeth - A Tout Le Monde","uid":8302549,"size":57539916,"categoryP":"video","categoryS":"music_videos","magnet":"?xt=urn:btih:1704ac472f67eff61733b2bfc02481ac00676a48&amp;dn=Megadeth+-+A+Tout+Le+Monde&amp;tr=udp%3A%2F%2Ftracker.openbittorrent.com%3A80&amp;tr=udp%3A%2F%2Fopen.demonii.com%3A1337&amp;tr=udp%3A%2F%2Ftracker.coppersurfer.tk%3A6969&amp;tr=udp%3A%2F%2Fexodus.desync.com%3A6969","seeders":0,"leechers":1,"uploader":"rootsuman","files":1,"time":1364303445,"description":"Format                                   : MPEG-PS\nFile size                                : 54.9 MiB\nDuration                                 : 4mn 10s\nOverall bit rate                         : 1 836 Kbps\n\nVideo\nID                                       : 224 (0xE0)\nFormat                                   : MPEG Video\nFormat version                           : Version 1\nFormat settings, BVOP                    : Yes\nFormat settings, Matrix                  : Custom\nDuration                                 : 4mn 10s\nBit rate                                 : 1 600 Kbps\nWidth                                    : 320 pixels\nHeight                                   : 240 pixels\nDisplay aspect ratio                     : 4:3\nFrame rate                               : 29.970 fps\nColor space                              : YUV\nBit depth                                : 8 bits\nScan type                                : Progressive\nCompression mode                         : Lossy\nBits/(Pixel*Frame)                       : 0.695\nStream size                              : 48.0 MiB (88%)\n\nAudio\nID                                       : 192 (0xC0)\nFormat                                   : MPEG Audio\nFormat version                           : Version 1\nFormat profile                           : Layer 2\nDuration                                 : 4mn 10s\nBit rate mode                            : Constant\nBit rate                                 : 192 Kbps\nChannel(s)                               : 2 channels\nSampling rate                            : 44.1 KHz\nCompression mode                         : Lossy\nStream size                              : 5.74 MiB (10%)\n","torrent":{"xt":"urn:btih:1704ac472f67eff61733b2bfc02481ac00676a48","amp;dn":"Megadeth+-+A+Tout+Le+Monde","amp;tr":["udp%3A%2F%2Ftracker.openbittorrent.com%3A80","udp%3A%2F%2Fopen.demonii.com%3A1337","udp%3A%2F%2Ftracker.coppersurfer.tk%3A6969","udp%3A%2F%2Fexodus.desync.com%3A6969"],"infoHash":"1704ac472f67eff61733b2bfc02481ac00676a48","infoHashBuffer":{"type":"Buffer","data":[23,4,172,71,47,103,239,246,23,51,178,191,192,36,129,172,0,103,106,72]},"announce":[],"urlList":[]}}